<?xml version="1.0" standalone="no"?>
<!DOCTYPE svg PUBLIC "-//W3C//DTD SVG 20010904//EN"
 "http://www.w3.org/TR/2001/REC-SVG-20010904/DTD/svg10.dtd">
<svg version="1.0" xmlns="http://www.w3.org/2000/svg"
 width="300.000000pt" height="183.000000pt" viewBox="0 0 300.000000 183.000000"
 preserveAspectRatio="xMidYMid meet">
<metadata>
Created by potrace 1.10, written by Peter Selinger 2001-2011
</metadata>
<g transform="translate(0.000000,183.000000) scale(0.100000,-0.100000)"
fill="#000000" stroke="none">
<path d="M1095 1668 c-7 -19 -25 -187 -25 -230 0 -52 26 -40 36 15 10 64 53
145 91 175 24 18 48 26 76 26 23 1 43 -2 45 -6 1 -5 2 -210 2 -456 l0 -449
-60 2 c-44 1 -60 -2 -60 -12 0 -10 45 -13 230 -13 177 0 230 3 230 13 0 8 -19
12 -61 12 l-60 0 -1 233 c-1 127 1 235 4 238 12 11 80 -9 98 -29 11 -11 24
-44 30 -74 7 -30 14 -52 17 -49 8 8 9 326 1 326 -4 0 -12 -24 -18 -54 -14 -71
-39 -96 -93 -96 l-42 0 2 207 2 208 79 0 c71 -1 83 -4 116 -28 41 -32 70 -84
90 -160 8 -33 19 -53 30 -55 14 -3 16 11 16 120 0 83 -4 128 -12 136 -18 18
-757 17 -763 0z m51 -55 c-28 -30 -38 -28 -29 5 4 15 13 22 30 22 l24 0 -25
-27z m357 -110 c9 -172 9 -351 0 -570 l-6 -173 -69 0 -68 0 0 83 c-1 257 -1
681 0 735 l0 62 68 0 69 0 6 -137z m327 90 l-1 -48 -16 30 c-8 17 -22 38 -31
48 -14 16 -13 17 16 17 31 0 32 -1 32 -47z"/>
<path d="M356 481 c0 -36 -3 -72 -9 -78 -7 -10 -4 -13 9 -13 17 0 19 7 17 52
-3 55 3 51 27 -14 5 -16 13 -28 17 -28 10 0 45 82 38 88 -3 3 -11 -10 -19 -29
l-14 -33 -15 35 c-8 20 -18 45 -21 56 -4 12 -12 23 -19 26 -10 4 -12 -12 -11
-62z"/>
<path d="M580 536 c14 -14 12 -120 -2 -134 -9 -9 1 -12 45 -12 50 0 57 2 57
20 0 11 -4 20 -10 20 -5 0 -10 -7 -10 -16 0 -11 -8 -14 -27 -12 -22 2 -29 9
-31 32 -4 28 -2 29 32 23 31 -5 36 -3 36 14 0 10 -4 19 -10 19 -5 0 -10 -4
-10 -9 0 -4 -10 -8 -22 -7 -17 1 -24 8 -26 29 -3 24 0 27 27 27 20 0 31 -6 34
-17 4 -14 5 -12 6 5 0 12 -5 22 -11 23 -73 4 -86 3 -78 -5z"/>
<path d="M770 542 c-11 -5 -15 -25 -15 -80 l0 -72 43 0 c37 0 42 3 42 23 -1
20 -2 20 -11 5 -5 -10 -19 -18 -30 -18 -19 0 -20 5 -17 75 2 41 3 75 3 74 0 0
-7 -3 -15 -7z"/>
<path d="M940 542 c-24 -3 -25 -6 -27 -77 l-2 -75 43 0 c29 0 46 5 49 15 4 8
2 17 -3 20 -6 4 -10 -1 -10 -9 0 -11 -9 -16 -30 -16 -27 0 -30 3 -30 31 0 30
2 31 33 26 27 -4 33 -2 33 14 0 10 -4 19 -8 19 -4 0 -8 -4 -8 -8 0 -4 -11 -9
-25 -10 -22 -1 -25 2 -25 28 0 26 3 30 29 30 20 0 31 -6 34 -17 4 -14 5 -14 6
3 1 23 -17 31 -59 26z"/>
<path d="M1095 534 c-23 -24 -15 -55 20 -74 36 -20 40 -54 7 -58 -13 -2 -25 3
-28 12 -8 21 -24 20 -24 -1 0 -13 9 -19 36 -21 70 -5 88 45 29 79 -42 25 -48
59 -11 59 15 0 26 -7 28 -17 2 -12 6 -14 11 -6 8 13 -18 43 -38 43 -7 0 -21
-7 -30 -16z"/>
<path d="M1260 530 c-26 -26 -23 -39 21 -68 38 -26 42 -40 17 -55 -13 -9 -22
-7 -37 7 -18 16 -21 17 -21 4 0 -28 65 -39 88 -16 22 22 12 47 -29 73 -22 15
-39 31 -36 38 6 20 40 20 54 1 12 -17 13 -16 13 4 0 12 -4 22 -9 22 -5 0 -16
3 -24 6 -9 3 -25 -4 -37 -16z"/>
<path d="M50 520 c0 -11 5 -20 10 -20 6 0 10 7 10 15 0 8 7 15 15 15 12 0 15
-14 15 -64 0 -53 -3 -65 -17 -69 -10 -3 2 -5 27 -5 25 0 37 2 28 5 -15 4 -18
16 -18 69 0 50 3 64 15 64 8 0 15 -7 15 -15 0 -8 5 -15 10 -15 6 0 10 9 10 20
0 18 -7 20 -60 20 -53 0 -60 -2 -60 -20z"/>
<path d="M240 465 c0 -53 4 -75 13 -75 8 0 12 22 12 75 0 53 -4 75 -12 75 -9
0 -13 -22 -13 -75z"/>
<path d="M469 528 c-6 -94 -3 -138 11 -138 12 0 14 13 12 75 -2 41 -8 75 -13
75 -5 0 -9 -6 -10 -12z"/>
<path d="M1495 468 c0 -66 1 -68 25 -67 14 0 19 3 13 6 -7 2 -13 16 -13 30 0
22 4 25 25 21 17 -4 25 -1 25 9 0 9 -7 12 -26 7 -23 -6 -25 -4 -22 21 3 32 33
42 48 17 8 -15 9 -14 10 6 0 21 -4 23 -42 20 l-43 -3 0 -67z"/>
<path d="M1640 481 c7 -69 14 -81 49 -81 16 0 33 6 39 13 14 17 20 127 6 127
-7 0 -9 -17 -6 -50 5 -54 -8 -80 -38 -80 -10 0 -21 7 -24 16 -10 26 -7 89 5
101 7 7 4 11 -13 11 -23 0 -23 -3 -18 -57z"/>
<path d="M1815 471 c0 -58 3 -71 16 -71 12 0 14 8 11 31 -4 26 -2 30 14 27 12
-2 20 -13 22 -31 3 -26 25 -37 37 -17 4 6 -1 7 -11 3 -14 -5 -16 -2 -12 15 4
12 2 25 -4 28 -5 4 -3 13 6 23 22 24 2 50 -44 57 l-35 6 0 -71z m53 50 c19
-11 11 -45 -11 -49 -13 -3 -17 3 -17 27 0 32 6 37 28 22z"/>
<path d="M1975 469 c0 -39 4 -69 10 -69 6 0 9 24 7 57 l-3 58 37 -59 c21 -33
39 -55 40 -50 9 36 9 134 -1 134 -7 0 -9 -13 -7 -34 6 -55 -2 -62 -27 -23 -13
21 -30 41 -39 46 -15 8 -17 1 -17 -60z"/>
<path d="M2155 468 c0 -46 4 -68 12 -68 9 0 11 16 7 56 -3 34 -1 61 6 69 9 11
8 14 -7 13 -15 -2 -18 -11 -18 -70z"/>
<path d="M2260 521 c-14 -26 -6 -43 31 -64 17 -9 29 -23 27 -30 -7 -20 -41
-21 -55 -1 -12 17 -13 16 -13 -4 0 -18 6 -22 34 -22 65 0 73 49 13 78 -28 13
-35 36 -16 47 5 4 19 -1 30 -11 16 -15 19 -15 19 -2 0 31 -54 38 -70 9z"/>
<path d="M2408 468 c-2 -57 0 -68 13 -68 12 0 14 7 11 30 -4 28 -2 30 28 30
30 0 32 -2 28 -30 -3 -23 -1 -30 11 -30 13 0 16 13 16 70 0 54 -3 69 -13 65
-8 -3 -15 -5 -16 -5 -1 0 -1 -13 2 -30 4 -28 2 -30 -27 -30 -28 0 -31 3 -31
29 0 16 6 31 13 34 6 3 2 4 -10 4 -20 -1 -22 -7 -25 -69z"/>
<path d="M2590 468 c0 -48 4 -68 13 -68 8 0 12 20 12 68 0 48 -4 69 -12 69 -9
0 -13 -21 -13 -69z"/>
<path d="M2694 468 c-1 -45 2 -68 10 -68 7 0 10 19 8 57 l-3 58 36 -55 c19
-30 39 -56 43 -57 4 -2 7 29 8 67 1 78 -13 96 -18 23 l-3 -48 -25 42 c-40 67
-55 62 -56 -19z"/>
<path d="M2897 529 c-38 -22 -41 -98 -4 -121 27 -17 64 -8 75 17 16 34 16 35
-10 35 -16 0 -19 -3 -11 -11 16 -16 5 -39 -18 -39 -29 0 -53 44 -42 76 14 41
37 52 62 30 18 -16 21 -17 21 -4 0 26 -41 36 -73 17z"/>
<path d="M1369 268 c-6 -18 -4 -98 2 -98 5 0 9 23 9 50 0 28 -2 50 -5 50 -3 0
-5 -1 -6 -2z"/>
<path d="M2190 260 c0 -5 5 -10 11 -10 5 0 7 5 4 10 -3 6 -8 10 -11 10 -2 0
-4 -4 -4 -10z"/>
<path d="M430 220 c0 -22 3 -40 8 -40 4 0 6 18 4 40 -2 22 -6 40 -8 40 -2 0
-4 -18 -4 -40z"/>
<path d="M567 253 c-11 -10 -8 -73 3 -73 6 0 10 10 11 23 0 12 2 30 4 40 3 17
-6 23 -18 10z"/>
<path d="M796 249 c-8 -22 -2 -62 9 -66 6 -2 10 12 9 33 -2 39 -11 55 -18 33z"/>
<path d="M1190 222 c0 -23 4 -42 9 -42 6 0 7 17 4 38 -8 51 -13 53 -13 4z"/>
<path d="M1462 220 c0 -25 3 -35 5 -22 2 12 9 20 14 17 14 -9 11 9 -6 31 -13
18 -14 16 -13 -26z"/>
<path d="M1520 241 c-13 -25 -13 -44 0 -36 6 3 7 -1 4 -9 -3 -9 -1 -16 5 -16
6 0 11 17 11 40 0 45 -4 49 -20 21z"/>
<path d="M1699 243 c-1 -10 -1 -23 0 -30 2 -16 -16 -26 -24 -13 -4 6 -1 17 5
25 7 9 8 15 2 15 -17 0 -33 -27 -26 -44 4 -10 18 -16 35 -16 27 0 29 3 29 40
0 38 -19 58 -21 23z"/>
<path d="M2020 220 c0 -22 5 -40 10 -40 6 0 10 18 10 40 0 22 -4 40 -10 40 -5
0 -10 -18 -10 -40z"/>
<path d="M1052 219 c4 -42 23 -49 22 -7 0 18 -6 34 -13 36 -9 3 -11 -6 -9 -29z"/>
<path d="M477 234 c-10 -11 -9 -54 2 -54 5 0 11 9 13 20 4 25 23 22 22 -2 0
-10 3 -18 8 -18 5 0 8 12 6 28 -3 26 -34 43 -51 26z"/>
<path d="M610 210 c0 -16 5 -30 10 -30 6 0 10 14 10 30 0 17 -4 30 -10 30 -5
0 -10 -13 -10 -30z"/>
<path d="M660 210 c0 -16 5 -30 10 -30 6 0 10 11 10 25 0 14 5 25 10 25 6 0
10 -11 10 -25 0 -14 5 -25 10 -25 6 0 10 6 10 14 0 30 -13 46 -36 46 -20 0
-24 -5 -24 -30z"/>
<path d="M747 233 c-11 -10 -8 -53 3 -53 6 0 10 14 10 30 0 31 -2 35 -13 23z"/>
<path d="M857 233 c-4 -3 -7 -17 -7 -30 0 -18 6 -23 24 -23 15 0 26 7 29 19 7
29 -26 54 -46 34z m30 -23 c-1 -11 -7 -20 -13 -20 -10 0 -12 15 -5 38 1 1 5 2
10 2 6 0 9 -9 8 -20z"/>
<path d="M980 225 c0 -17 2 -18 24 -9 23 9 20 24 -4 24 -11 0 -20 -7 -20 -15z"/>
<path d="M1112 210 c5 -17 7 -37 4 -45 -3 -8 -2 -15 3 -15 12 0 45 79 37 87
-4 4 -10 -4 -13 -17 l-6 -24 -8 22 c-13 35 -30 27 -17 -8z"/>
<path d="M1234 225 c-9 -23 3 -45 25 -45 20 0 37 32 26 50 -9 15 -45 12 -51
-5z m36 -5 c0 -5 -4 -10 -10 -10 -5 0 -10 5 -10 10 0 6 5 10 10 10 6 0 10 -4
10 -10z"/>
<path d="M1574 226 c-10 -26 4 -48 28 -44 17 2 23 10 23 28 0 18 -6 26 -23 28
-13 2 -25 -3 -28 -12z m36 -16 c0 -21 -15 -27 -25 -10 -7 12 2 30 16 30 5 0 9
-9 9 -20z"/>
<path d="M1752 231 c-23 -14 -10 -46 18 -46 20 0 25 5 25 25 0 26 -20 36 -43
21z m25 -21 c-1 -11 -5 -20 -9 -20 -4 0 -8 9 -8 20 0 11 4 20 9 20 6 0 9 -9 8
-20z"/>
<path d="M1831 208 c1 -24 3 -27 6 -10 2 12 9 22 14 22 5 0 9 5 9 10 0 6 -7
10 -15 10 -11 0 -15 -10 -14 -32z"/>
<path d="M1891 208 c1 -28 2 -29 7 -10 9 30 25 30 34 0 6 -19 7 -18 5 7 -2 23
-7 31 -24 33 -20 3 -23 -1 -22 -30z"/>
<path d="M2060 210 c0 -16 5 -30 10 -30 6 0 10 14 10 30 0 17 -4 30 -10 30 -5
0 -10 -13 -10 -30z"/>
<path d="M2115 210 c9 -16 18 -30 20 -30 2 0 11 14 20 30 10 20 12 30 4 30 -6
0 -13 -10 -17 -22 l-5 -22 -8 22 c-5 12 -13 22 -19 22 -6 0 -4 -12 5 -30z"/>
<path d="M2190 210 c0 -16 5 -30 10 -30 6 0 10 14 10 30 0 17 -4 30 -10 30 -5
0 -10 -13 -10 -30z"/>
<path d="M2239 238 c0 -2 -2 -15 -4 -30 -4 -32 12 -39 17 -8 4 28 21 27 30 -2
6 -19 7 -18 5 7 -2 23 -7 31 -24 33 -13 2 -23 2 -24 0z"/>
<path d="M2324 225 c-9 -23 3 -45 26 -45 12 0 18 -4 15 -10 -4 -6 -16 -8 -28
-4 -17 5 -19 3 -11 -6 7 -6 20 -10 30 -8 14 2 20 14 22 46 3 39 2 42 -23 42
-14 0 -28 -7 -31 -15z m37 -20 c-1 -15 -24 -12 -29 3 -3 9 2 13 12 10 10 -1
17 -7 17 -13z"/>
<path d="M1006 198 c5 -8 2 -9 -9 -5 -10 3 -17 2 -17 -3 0 -6 9 -10 20 -10 11
0 20 7 20 15 0 8 -5 15 -11 15 -5 0 -7 -5 -3 -12z"/>
<path d="M1490 190 c0 -5 5 -10 10 -10 6 0 10 5 10 10 0 6 -4 10 -10 10 -5 0
-10 -4 -10 -10z"/>
</g>
</svg>
